<svg id="Capa_1" enable-background="new 0 0 512.012 512.012" height="512" viewBox="0 0 512.012 512.012" width="512" xmlns="http://www.w3.org/2000/svg"><g><g id="Page-1_53_"><g id="_x30_54---Server-Error"><g clip-rule="evenodd" fill-rule="evenodd"><path id="Path_171_" d="m51.2 34.139c-4.713 0-8.533 3.821-8.533 8.533v17.067c0 4.713 3.821 8.533 8.533 8.533s8.533-3.821 8.533-8.533v-17.067c0-4.712-3.82-8.533-8.533-8.533z"/><path id="Path_170_" d="m85.333 34.139c-4.713 0-8.533 3.821-8.533 8.533v17.067c0 4.713 3.821 8.533 8.533 8.533s8.533-3.821 8.533-8.533v-17.067c.001-4.712-3.82-8.533-8.533-8.533z"/><path id="Path_169_" d="m119.467 34.139c-4.713 0-8.533 3.821-8.533 8.533v17.067c0 4.713 3.821 8.533 8.533 8.533 4.713 0 8.533-3.821 8.533-8.533v-17.067c0-4.712-3.821-8.533-8.533-8.533z"/><circle id="Oval_59_" cx="290.133" cy="51.206" r="8.533"/><circle id="Oval_58_" cx="324.267" cy="51.206" r="8.533"/><path id="Path_168_" d="m213.333 42.672h-51.2c-4.713 0-8.533 3.821-8.533 8.533s3.821 8.533 8.533 8.533h51.2c4.713 0 8.533-3.821 8.533-8.533s-3.82-8.533-8.533-8.533z"/><path id="Path_167_" d="m51.2 119.472c-4.713 0-8.533 3.821-8.533 8.533v17.067c0 4.713 3.821 8.533 8.533 8.533s8.533-3.821 8.533-8.533v-17.067c0-4.712-3.82-8.533-8.533-8.533z"/><path id="Path_166_" d="m85.333 119.472c-4.713 0-8.533 3.821-8.533 8.533v17.067c0 4.713 3.821 8.533 8.533 8.533s8.533-3.821 8.533-8.533v-17.067c.001-4.712-3.82-8.533-8.533-8.533z"/><path id="Path_165_" d="m119.467 119.472c-4.713 0-8.533 3.821-8.533 8.533v17.067c0 4.713 3.821 8.533 8.533 8.533 4.713 0 8.533-3.821 8.533-8.533v-17.067c0-4.712-3.821-8.533-8.533-8.533z"/><circle id="Oval_57_" cx="290.133" cy="136.539" r="8.533"/><circle id="Oval_56_" cx="324.267" cy="136.539" r="8.533"/><path id="Path_164_" d="m213.333 128.006h-51.2c-4.713 0-8.533 3.82-8.533 8.533s3.821 8.533 8.533 8.533h51.2c4.713 0 8.533-3.821 8.533-8.533s-3.82-8.533-8.533-8.533z"/><path id="Path_163_" d="m51.2 204.806c-4.713 0-8.533 3.82-8.533 8.533v17.067c0 4.713 3.821 8.533 8.533 8.533s8.533-3.821 8.533-8.533v-17.067c0-4.713-3.82-8.533-8.533-8.533z"/><path id="Path_162_" d="m85.333 204.806c-4.713 0-8.533 3.82-8.533 8.533v17.067c0 4.713 3.821 8.533 8.533 8.533s8.533-3.821 8.533-8.533v-17.067c.001-4.713-3.82-8.533-8.533-8.533z"/><path id="Path_161_" d="m119.467 204.806c-4.713 0-8.533 3.82-8.533 8.533v17.067c0 4.713 3.821 8.533 8.533 8.533 4.713 0 8.533-3.821 8.533-8.533v-17.067c0-4.713-3.821-8.533-8.533-8.533z"/><path id="Path_160_" d="m213.333 213.339h-51.2c-4.713 0-8.533 3.821-8.533 8.533s3.821 8.533 8.533 8.533h51.2c4.713 0 8.533-3.82 8.533-8.533s-3.82-8.533-8.533-8.533z"/></g><path id="Shape_121_" d="m34.133 358.406h145.067v18.278c-11.941 3.122-21.266 12.447-24.388 24.388h-95.079c-4.713 0-8.533 3.82-8.533 8.533s3.821 8.533 8.533 8.533h94.985c1.62 6.41 5.089 12.203 9.975 16.657l-24.124 38.076c-4.992 7.871-5.299 17.837-.802 26.001 4.377 8.127 12.879 13.177 22.11 13.133h324.779c9.258.073 17.797-4.982 22.187-13.133 4.497-8.164 4.19-18.13-.802-26.001l-137.327-216.678c3.096-5.224 4.737-11.182 4.753-17.254v-34.133c-.031-9.84-4.334-19.182-11.793-25.6 7.459-6.418 11.762-15.76 11.793-25.6v-34.133c-.031-9.84-4.334-19.182-11.793-25.6 7.459-6.418 11.762-15.76 11.793-25.6v-34.134c0-18.851-15.282-34.133-34.133-34.133h-307.2c-18.852 0-34.134 15.282-34.134 34.133v34.133c.031 9.84 4.334 19.182 11.793 25.6-7.459 6.418-11.762 15.76-11.793 25.6v34.133c.031 9.84 4.334 19.182 11.793 25.6-7.459 6.418-11.762 15.76-11.793 25.6v34.133c.031 9.84 4.334 19.182 11.793 25.6-7.459 6.418-11.762 15.76-11.793 25.6v34.133c0 18.853 15.282 34.135 34.133 34.135zm178.919 0-12.518 19.721c-1.39-.566-2.815-1.042-4.267-1.425v-18.296zm-42.385 51.2c0-9.426 7.641-17.067 17.067-17.067 1.129.072 2.247.26 3.337.563l-16.887 26.65c-2.235-2.916-3.468-6.474-3.517-10.146zm323.191 81.066c-1.42 2.652-4.194 4.296-7.202 4.267h-324.779c-3.008.029-5.783-1.615-7.202-4.267-1.515-2.709-1.413-6.033.265-8.644l162.389-256.282c1.493-2.395 4.115-3.851 6.938-3.851 2.822 0 5.445 1.456 6.938 3.851l162.389 256.282c1.677 2.612 1.779 5.935.264 8.644zm-476.791-422.4v-34.133c0-9.426 7.641-17.067 17.067-17.067h307.2c9.426 0 17.067 7.641 17.067 17.067v34.133c0 9.426-7.641 17.067-17.067 17.067h-307.2c-9.426 0-17.067-7.641-17.067-17.067zm0 85.334v-34.133c0-9.426 7.641-17.067 17.067-17.067h307.2c9.426 0 17.067 7.641 17.067 17.067v34.133c0 9.426-7.641 17.067-17.067 17.067h-307.2c-9.426-.001-17.067-7.642-17.067-17.067zm0 85.333v-34.133c0-9.426 7.641-17.067 17.067-17.067h307.2c9.426 0 17.067 7.641 17.067 17.067v31.949l-12.8-20.164c-4.623-7.319-12.676-11.757-21.333-11.757s-16.71 4.438-21.333 11.757l-24.994 39.415h-243.808c-9.425 0-17.066-7.641-17.066-17.067zm250.026 34.133-43.264 68.267h-189.696c-9.426 0-17.067-7.641-17.067-17.067v-34.133c0-9.426 7.641-17.067 17.067-17.067z"/><path id="Path_159_" clip-rule="evenodd" d="m51.2 324.272c4.713 0 8.533-3.82 8.533-8.533v-17.067c0-4.713-3.821-8.533-8.533-8.533s-8.533 3.821-8.533 8.533v17.067c0 4.713 3.82 8.533 8.533 8.533z" fill-rule="evenodd"/><path id="Path_158_" clip-rule="evenodd" d="m85.333 324.272c4.713 0 8.533-3.82 8.533-8.533v-17.067c0-4.713-3.821-8.533-8.533-8.533s-8.533 3.821-8.533 8.533v17.067c0 4.713 3.821 8.533 8.533 8.533z" fill-rule="evenodd"/><path id="Path_157_" clip-rule="evenodd" d="m119.467 324.272c4.713 0 8.533-3.82 8.533-8.533v-17.067c0-4.713-3.821-8.533-8.533-8.533-4.713 0-8.533 3.821-8.533 8.533v17.067c-.001 4.713 3.82 8.533 8.533 8.533z" fill-rule="evenodd"/><path id="Path_156_" clip-rule="evenodd" d="m162.133 315.739h42.667c4.713 0 8.533-3.82 8.533-8.533s-3.821-8.533-8.533-8.533h-42.667c-4.713 0-8.533 3.821-8.533 8.533s3.821 8.533 8.533 8.533z" fill-rule="evenodd"/><path id="Shape_120_" d="m324.267 426.672c-14.138 0-25.6 11.462-25.6 25.6s11.462 25.6 25.6 25.6 25.6-11.462 25.6-25.6-11.462-25.6-25.6-25.6zm0 34.134c-4.713 0-8.533-3.821-8.533-8.533 0-4.713 3.821-8.533 8.533-8.533s8.533 3.821 8.533 8.533-3.82 8.533-8.533 8.533z"/><path id="Shape_119_" d="m298.667 307.206v76.8c0 14.138 11.462 25.6 25.6 25.6s25.6-11.462 25.6-25.6v-76.8c0-14.138-11.462-25.6-25.6-25.6-14.139 0-25.6 11.461-25.6 25.6zm34.133 0v76.8c0 4.713-3.82 8.533-8.533 8.533s-8.533-3.821-8.533-8.533v-76.8c0-4.713 3.821-8.533 8.533-8.533s8.533 3.82 8.533 8.533z"/></g></g></g></svg>